<svg width="36" height="36" viewBox="0 0 36 36" fill="none" xmlns="http://www.w3.org/2000/svg">
<path fill-rule="evenodd" clip-rule="evenodd" d="M14.392 33.3133C14.8528 34.2532 15.37 35.0921 15.9442 35.7983C13.8604 34.973 12.0513 33.8296 10.5249 32.4525C11.8008 32.8553 13.0907 33.1426 14.392 33.3133ZM15.5804 33.4364C16.156 34.4968 16.7988 35.3621 17.4979 35.9931C17.6647 35.9977 17.832 36 18 36C18.168 36 18.3353 35.9977 18.5021 35.9931C19.2393 35.3277 19.9138 34.4017 20.5131 33.2612C19.5037 33.4086 18.4966 33.4878 17.4928 33.4987C16.8531 33.5056 16.2156 33.4848 15.5804 33.4364ZM21.0381 32.1634C19.8459 32.3746 18.6598 32.486 17.4819 32.4988C16.672 32.5076 15.8645 32.4697 15.0603 32.3852C14.7316 31.6575 14.4298 30.8601 14.1575 30.0022C13.5026 27.939 13.0315 25.5669 12.7627 23.0611C13.495 23.1424 14.239 23.2055 14.9923 23.2487C17.6521 23.4014 20.437 23.3071 23.2551 22.8916C22.9896 25.4599 22.5121 27.8925 21.8425 30.0022C21.5977 30.7738 21.3289 31.4964 21.0381 32.1634ZM21.7345 33.0497C21.2424 34.0968 20.6831 35.0267 20.0558 35.7983C22.5151 34.8243 24.592 33.4071 26.2728 31.6857C24.7589 32.2926 23.2448 32.7473 21.7345 33.0497ZM27.7803 29.923C25.9199 30.8294 24.0643 31.4942 22.2216 31.9214C22.4271 31.403 22.6185 30.8628 22.7957 30.3047C23.512 28.048 24.0111 25.4519 24.2766 22.727C26.6436 22.3129 29.0261 21.667 31.3699 20.7455C30.9894 24.0591 29.7804 27.247 27.7803 29.923ZM28.4758 30.6948C27.1791 32.3901 25.5737 33.8852 23.6667 35.0899C27.5021 33.8188 30.7654 31.2927 32.9701 27.9983C31.4768 29.047 29.9774 29.9458 28.4758 30.6948ZM34.2158 25.8228C32.7067 27.0135 31.1947 28.0424 29.6842 28.9115C31.2419 26.304 32.1615 23.3488 32.4224 20.3119C33.6274 19.7921 34.8201 19.197 35.9927 18.5204C35.9186 21.1319 35.2881 23.6041 34.2158 25.8228ZM13.9041 32.2312C12.2261 31.9604 10.564 31.4849 8.92371 30.8047C6.62964 28.1117 5.20911 24.8022 4.70581 21.3281C6.83704 22.0323 9.21338 22.5915 11.7441 22.9354C12.0145 25.5842 12.5063 28.1056 13.2043 30.3047C13.4171 30.975 13.6503 31.6195 13.9041 32.2312ZM6.92822 29.8703C5.11938 27.2186 4.01648 24.144 3.64319 20.9576C2.33044 20.4753 1.125 19.9381 0.0509033 19.3645C0.254028 22.0748 1.05737 24.6177 2.32837 26.8608C3.83521 28.053 5.37024 29.0562 6.92822 29.8703ZM3.98059 29.2907C6.12708 31.9526 9.01624 33.9906 12.3333 35.0899C10.7803 34.1089 9.42737 32.9353 8.27832 31.6178C6.82336 30.9949 5.38928 30.2185 3.98059 29.2907ZM11.6512 21.913C9.08289 21.5493 6.69189 20.9604 4.57764 20.2292C4.30432 17.1424 4.74646 13.9647 5.93396 11.0049C7.78894 11.3431 9.80115 11.6345 11.9178 11.8415C11.5942 14.1819 11.4625 16.622 11.509 19.028C11.5278 19.9968 11.5754 20.9613 11.6512 21.913ZM15.0496 22.2504C17.7242 22.4039 20.5231 22.3015 23.3492 21.8662C23.4249 20.9252 23.4725 19.9698 23.4911 19.0087C23.5365 16.6547 23.4078 14.2749 23.0945 11.9996C20.4183 12.2054 17.7677 12.2147 15.2249 12.0869C14.4445 12.0476 13.6737 11.9954 12.9149 11.9319C12.5947 14.2277 12.463 16.6313 12.5089 19.0087C12.5287 20.0303 12.5811 21.0455 12.6653 22.0437C13.4462 22.1344 14.2419 22.204 15.0496 22.2504ZM24.3656 21.6954C26.7405 21.2625 29.1263 20.5888 31.4664 19.629C31.6359 16.7245 31.1742 13.7574 30.0571 10.9827C28.0828 11.4217 26.0831 11.7239 24.092 11.9137C24.4084 14.2321 24.537 16.6467 24.491 19.028C24.4736 19.923 24.4318 20.8144 24.3656 21.6954ZM32.4885 19.19C33.6719 18.6586 34.8412 18.0513 35.9889 17.3622C35.8954 14.677 35.2139 12.1414 34.0688 9.88008C33.0675 10.212 32.053 10.5024 31.0303 10.7546C32.0999 13.466 32.5804 16.3492 32.4885 19.19ZM0.000976562 18.1952C1.03918 18.7866 2.22913 19.3464 3.54321 19.8517C3.34973 16.8204 3.8103 13.7214 4.94507 10.8174C3.83203 10.5981 2.78308 10.3636 1.81067 10.1227C0.650879 12.5019 0 15.175 0 18C0 18.0651 0.000244141 18.1302 0.000976562 18.1952ZM22.9451 11.0081C20.3447 11.2046 17.7623 11.2132 15.2751 11.0881C14.5291 11.0506 13.792 11.0011 13.066 10.9411C13.2627 9.75491 13.5117 8.60379 13.8145 7.50706C14.6735 4.39607 15.9532 1.76683 17.6609 0.00312805L17.7268 0.00204468L17.8125 0.000961304L17.8824 0.000366211L18 0L18.0409 4.57764e-05C18.1404 0.000259399 18.2399 0.00128174 18.3391 0.00312805C20.0468 1.76683 21.3265 4.39607 22.1855 7.50706C22.494 8.62444 22.7467 9.79826 22.9451 11.0081ZM29.6523 10.0478C27.7655 10.4586 25.8528 10.7433 23.9445 10.9232C23.7388 9.65302 23.4745 8.41817 23.1494 7.24092C22.4207 4.60097 21.3774 2.22032 19.9779 0.382065C24.6246 2.63182 27.8247 6.10933 29.6523 10.0478ZM33.5842 8.98672C32.6132 9.30348 31.6288 9.58073 30.6357 9.82164C28.9866 6.17203 26.2324 2.89023 22.3312 0.52449C27.129 1.70964 31.1686 4.81895 33.5842 8.98672ZM12.0673 10.8513C10.0457 10.6552 8.12085 10.3807 6.34094 10.0622C8.16748 6.11777 11.3698 2.63455 16.0221 0.382065C14.6226 2.22032 13.5793 4.60097 12.8506 7.24092C12.5316 8.39595 12.2712 9.6064 12.0673 10.8513ZM5.33997 9.87563C6.98633 6.20439 9.74829 2.90189 13.6688 0.52449C8.78552 1.73073 4.68787 4.93025 2.28833 9.21027C3.23694 9.44125 4.25818 9.66585 5.33997 9.87563Z" fill="white"/>
</svg>
