<svg width="40" height="40" viewBox="0 0 40 40" fill="none" xmlns="http://www.w3.org/2000/svg">
<g filter="url(#filter0_d_87_9)">
<path d="M21 2.5C21 1.67157 20.3284 1 19.5 1H5C2.79086 1 1 2.79086 1 5V35C1 37.2091 2.79086 39 5 39H35C37.2091 39 39 37.2091 39 35V19.5C39 18.6716 38.3284 18 37.5 18C36.6716 18 36 18.6716 36 19.5V35C36 35.5523 35.5523 36 35 36H5C4.44772 36 4 35.5523 4 35V5C4 4.44772 4.44772 4 5 4H19.5C20.3284 4 21 3.32843 21 2.5Z" fill="white"/>
<path fill-rule="evenodd" clip-rule="evenodd" d="M28.7071 1H37.7071C38.2594 1 38.7071 1.44772 38.7071 2V11C38.7071 11.5523 38.2594 12 37.7071 12C37.1548 12 36.7071 11.5523 36.7071 11V6.82843C36.7071 5.93752 35.63 5.49136 35 6.12132L13.1213 28C12.7308 28.3905 12.0976 28.3905 11.7071 28C11.3166 27.6095 11.3166 26.9763 11.7071 26.5858L33.5858 4.70711C34.2157 4.07714 33.7696 3 32.8787 3H28.7071C28.1548 3 27.7071 2.55228 27.7071 2C27.7071 1.44772 28.1548 1 28.7071 1Z" fill="white"/>
<path d="M19.5 0.5H5C2.51472 0.5 0.5 2.51472 0.5 5V35C0.5 37.4853 2.51472 39.5 5 39.5H35C37.4853 39.5 39.5 37.4853 39.5 35V19.5C39.5 18.3954 38.6046 17.5 37.5 17.5C36.3954 17.5 35.5 18.3954 35.5 19.5V35C35.5 35.2761 35.2761 35.5 35 35.5H5C4.72386 35.5 4.5 35.2761 4.5 35V5C4.5 4.72386 4.72386 4.5 5 4.5H19.5C20.6046 4.5 21.5 3.60457 21.5 2.5C21.5 1.39543 20.6046 0.5 19.5 0.5ZM37.7071 0.5H28.7071C27.8787 0.5 27.2071 1.17157 27.2071 2C27.2071 2.82843 27.8787 3.5 28.7071 3.5H32.8787C33.3241 3.5 33.5472 4.03857 33.2322 4.35355L11.3536 26.2322C10.7678 26.818 10.7678 27.7678 11.3536 28.3536C11.9393 28.9393 12.8891 28.9393 13.4749 28.3536L35.3536 6.47487C35.6685 6.15989 36.2071 6.38298 36.2071 6.82843V11C36.2071 11.8284 36.8787 12.5 37.7071 12.5C38.5355 12.5 39.2071 11.8284 39.2071 11V2C39.2071 1.17157 38.5355 0.5 37.7071 0.5Z" stroke="white"/>
</g>
<defs>
<filter id="filter0_d_87_9" x="0" y="0" width="40" height="40" filterUnits="userSpaceOnUse" color-interpolation-filters="sRGB">
<feFlood flood-opacity="0" result="BackgroundImageFix"/>
<feColorMatrix in="SourceAlpha" type="matrix" values="0 0 0 0 0 0 0 0 0 0 0 0 0 0 0 0 0 0 127 0" result="hardAlpha"/>
<feOffset/>
<feComposite in2="hardAlpha" operator="out"/>
<feColorMatrix type="matrix" values="0 0 0 0 1 0 0 0 0 1 0 0 0 0 1 0 0 0 1 0"/>
<feBlend mode="normal" in2="BackgroundImageFix" result="effect1_dropShadow_87_9"/>
<feBlend mode="normal" in="SourceGraphic" in2="effect1_dropShadow_87_9" result="shape"/>
</filter>
</defs>
</svg>
