<svg width="145" height="22" viewBox="0 0 145 22" fill="none" xmlns="http://www.w3.org/2000/svg">
<path d="M2.89062 4.0625L0.609375 4.09375V22H2.98438V10.8125L8.64062 22H10.5156V4.09375H8.01562V14L2.89062 4.0625ZM15.6406 22V7.90625H25.5469V22H15.6406ZM23.2031 10.2188L18.1406 10.25V19.75H23.2031V10.2188ZM30.6719 0.875V22H33.0469V0.875H30.6719ZM38.1406 0.875V22H40.5156V0.875H38.1406ZM53.0156 13.6875V10.1562H45.6094V7.90625H55.5156V22H45.6719V13.6875H53.0156ZM53.0156 15.9688H47.9844V19.6875H53.0156V15.9688ZM71.4844 10.1562H76.9219V22H67.0156V4.09375H76.9219V6.4375H69.5156V19.75H74.5469V12.375H71.4844V10.1562ZM89.4531 13.6875V10.1562H82.0469V7.90625H91.9531V22H82.1094V13.6875H89.4531ZM89.4531 15.9688H84.4219V19.6875H89.4531V15.9688ZM106.984 22H104.422V10.1562H99.4531V22H97.0781V7.90625H114.359V22H111.859V10.1562H106.984V22ZM121.953 16.25V19.75H129.359V22H119.453V7.90625H129.297V16.25H121.953ZM121.953 13.9375H127.016V10.2188H121.953V13.9375ZM136.859 19.6562V18.4688H134.484V22L144.328 21.9688V14.75L136.984 13.0312V10.25H142.047V13.0312H144.391V7.90625H134.484V15.2812L141.891 17V19.6562H136.859Z" fill="url(#paint0_linear_11_4)"/>
<defs>
<linearGradient id="paint0_linear_11_4" x1="72.5" y1="1.14634" x2="72.5" y2="23.0976" gradientUnits="userSpaceOnUse">
<stop stop-color="#FEF294"/>
<stop offset="1" stop-color="#B94A51"/>
</linearGradient>
</defs>
</svg>
